# xmcd
# 
# Track frame offsets:
#     150
#     18547
#     42680
#     58482
#     78118
#     100426
#     121635
#     142570
#     161909
#     182782
#     204722
#     226151
# 
# Disc length: 3293
# 
# Revision: 9
# Processed by: cddbd v1.5.2PL0 Copyright (c) Steve Scherf et al.
# Submitted via: fre:ac v1.0.17
# 
DISCID=a10cdb0c
DTITLE=Salsa Hits - Salsa Hits 2004
DYEAR=2003
DGENRE=Salsa
TTITLE0=Sexappeal - Meniando La Cola
TTITLE1=Gilberto Santa Rosa - Si Te Dijeron
TTITLE2=Puerto Rican Power - Doctor (Mi Mujer Me Esta Esperando)
TTITLE3=Victor Manuelle - Poco Hombre
TTITLE4=Fruko and Sus Tesos - Cachondea
TTITLE5=Jerry Rivera - Vuela Muy Alto
TTITLE6=Sonora Carruseles - La Comay (Boogaloo)
TTITLE7=Frankie Negron - Mi Mulata
TTITLE8=Kevin Ceballo - Amame o Dejame
TTITLE9=Ismael Miranda - Trayectoria
TTITLE10=Tranzas - Mori
TTITLE11=T.M.C. - Que Swing
EXTD=YEAR: 2003
EXTT0=
EXTT1=
EXTT2=
EXTT3=
EXTT4=
EXTT5=
EXTT6=
EXTT7=
EXTT8=
EXTT9=
EXTT10=
EXTT11=
PLAYORDER=
